<?xml version="1.0" encoding="UTF-8" standalone="no"?>
<svg
   version="1.1"
   id="Layer_1"
   x="0px"
   y="0px"
   viewBox="0 0 333.815 333.815"
   style="enable-background:new 0 0 333.815 333.815;"
   xmlns="http://www.w3.org/2000/svg">
  <defs
     id="defs67" />
  <g
     id="XMLID_1400_">
    <g
       id="XMLID_1401_"
       style="fill:#ffffff;fill-opacity:1;stroke:#000000;stroke-opacity:1">
      <g
         id="XMLID_1402_"
         style="fill:#ffffff;fill-opacity:1;stroke:#000000;stroke-opacity:1">
        <path
           id="XMLID_1403_"
           style="fill:#ffffff;fill-opacity:1;stroke:#000000;stroke-opacity:1"
           d="M250.097,238.262c-18.667-6.681-51.458-11.736-51.458-81.376h-29.23h-5.002     h-29.23c0,69.64-32.791,74.695-51.458,81.376c0,47.368,68.832,48.824,80.688,53.239v1.537c0,0,0.922-0.188,2.501-0.68     c1.579,0.492,2.501,0.68,2.501,0.68v-1.537C181.265,287.086,250.097,285.63,250.097,238.262z" />
      </g>
      <path
         id="XMLID_1404_"
         style="fill:#ffffff;fill-opacity:1;stroke:#000000;stroke-opacity:1"
         d="M198.639,156.886h-29.23h-2.834v135.573c0.11-0.033,0.216-0.064,0.333-0.101    c1.579,0.492,2.501,0.68,2.501,0.68V291.5c11.856-4.414,80.688-5.871,80.688-53.238    C231.43,231.581,198.639,226.526,198.639,156.886z" />
    </g>
    <g
       id="XMLID_1405_">
      <ellipse
         id="XMLID_65_"
         transform="matrix(0.3543 -0.9351 0.9351 0.3543 41.877 286.6909)"
         style="fill:#EDCEAE;"
         cx="228.54"
         cy="113.021"
         rx="17.187"
         ry="10.048" />
      <ellipse
         id="XMLID_64_"
         transform="matrix(0.3543 0.9351 -0.9351 0.3543 172.9698 -24.4475)"
         style="fill:#F3DBC4;"
         cx="104.188"
         cy="113.029"
         rx="17.187"
         ry="10.048" />
    </g>
    <g
       id="XMLID_1406_"
       style="fill:#ffffff;fill-opacity:1">
      <g
         id="XMLID_1407_"
         style="fill:#ffffff;fill-opacity:1">
        <path
           id="XMLID_1408_"
           style="fill:#ffffff;fill-opacity:1"
           d="m 166.91,180.733 c -27.454,0 -41.909,-23.619 -51.299,-40.956 -9.39,-17.337 -10.72074,-79.298553 9.50726,-106.750553 29.35394,-12.740865 41.08464,2.071902 41.08464,2.071902 0,0 12.08223,-13.045 42.14428,-3.839669 20.226,27.452 40.74682,55.68132 8.35582,110.01832 -13.65586,22.90492 -22.344,39.456 -49.793,39.456 z" />
      </g>
    </g>
    <g
       id="XMLID_1410_">
      <g
         id="XMLID_1411_">
        <path
           id="XMLID_1414_"
           style="fill:#212529;fill-opacity:1"
           d="M286.89,293.134v40.681H46.926v-40.681c0-30.431,17.377-56.963,40.605-70.913     c6.043-3.641,19.69-7.43,26.844-9.196c5.953-1.488,53.438,22.729,53.438,22.729s48.674-23.218,54.627-21.729     c7.154,1.766,17.802,4.554,23.844,8.196C269.513,236.171,286.89,262.702,286.89,293.134z" />
      </g>
      <path
         id="XMLID_1417_"
         style="fill:#212529;fill-opacity:1"
         d="M246.285,222.22c-6.043-3.641-16.69-6.429-23.844-8.196    c-5.953-1.488-54.627,21.729-54.627,21.729s-0.442-0.225-1.239-0.627v98.688H286.89v-40.681    C286.89,262.703,269.513,236.171,246.285,222.22z" />
    </g>
    <g
       id="XMLID_1418_">
      <polygon
         id="XMLID_1419_"
         style="fill:#ffffff;fill-opacity:1"
         points="188.575,240.372 166.908,233.538 145.241,240.372 159.555,251.364     150.575,333.814 183.241,333.814 174.261,251.364   " />
      <polygon
         id="XMLID_1420_"
         style="fill:#dedde0;fill-opacity:1"
         points="188.575,240.372 166.908,233.538 166.575,233.643 166.575,333.814     183.241,333.814 174.261,251.364   " />
    </g>
    <g
       id="XMLID_1421_"
       style="stroke:#000000;stroke-opacity:1">
      <path
         id="XMLID_1422_"
         style="fill:#FFFFFF;stroke:#000000;stroke-opacity:1"
         d="M215.075,209.247l-48.167,23.441l-48.167-23.441    c-11.5,5.5,10.396,38.436,14.833,36.833c10.963-3.96,33.334-10.329,33.334-10.329s22.371,6.369,33.334,10.329    C204.679,247.683,226.575,214.747,215.075,209.247z" />
      <path
         id="XMLID_1423_"
         style="fill:#DEDDE0;stroke:#000000;stroke-opacity:1"
         d="M215.075,209.247l-48.167,23.441l-0.333-0.162v3.321    c0.211-0.061,0.333-0.095,0.333-0.095s22.371,6.369,33.334,10.329C204.679,247.683,226.575,214.747,215.075,209.247z" />
      <text
         xml:space="preserve"
         style="font-style:normal;font-weight:normal;font-size:53.3333px;line-height:1.25;font-family:sans-serif;fill:#212529;fill-opacity:1;stroke:none"
         x="-0.43621731"
         y="185.76788"
         id="text6182"><tspan
           id="tspan6180"
           x="-0.43621731"
           y="185.76788"
           style="font-style:normal;font-variant:normal;font-weight:bold;font-stretch:normal;font-size:53.3333px;font-family:sans-serif;-inkscape-font-specification:'sans-serif Bold';fill:#212529;fill-opacity:1">V2</tspan></text>
    </g>
    <g
       id="XMLID_1429_"
       transform="translate(-0.01082626,0.45481166)">
      <g
         id="XMLID_1430_"
         transform="translate(-129.40054,7.0710678)">
        <path
           id="XMLID_1433_"
           style="fill:#212529;fill-opacity:1"
           d="m 359.3355,40.523796 c 0,0 -12.59493,-26.839958 -43.1247,-29.925003 -15.19274,-1.2638383 -20.77269,0.20877 -28.51994,0.235761 -6.03958,0.334987 -11.53689,0.878162 -16.572,1.761342 -18.07807,3.170972 -30.19787,10.724933 -40.06545,28.762808 -0.30823,0.563445 -1.14459,2.728109 -1.44854,3.312199 -4.86232,36.186117 -4.24767,34.91401 0.23533,47.86301 4.483,12.948997 8.466,23.406997 8.466,23.406997 0,0 0.996,3.565 2.988,-16.853997 1.992,-20.419 -4.455,-44.629 11.387,-44.629 52.452,0 11.31139,-0.302343 44.96139,-0.302343 33.391,0 23.68511,0.615632 41.90211,0.624632 17.733,1.537765 12.41626,13.802666 12.8955,44.306711 0.32228,20.513397 2.988,16.853997 2.988,16.853997 0,0 8.92,-9.712 8.466,-23.406997 -0.51,-15.454 2.64026,-34.55181 -4.5587,-52.010117 z" />
      </g>
    </g>
    <g
       id="XMLID_1435_"
       style="fill:#ffffff;fill-opacity:1;stroke:#000000;stroke-opacity:1">
      <ellipse
         id="XMLID_33_"
         transform="matrix(0.3543 -0.9351 0.9351 0.3543 41.877 286.6909)"
         style="fill:#ffffff;fill-opacity:1;stroke:#000000;stroke-opacity:1"
         cx="228.54"
         cy="113.021"
         rx="17.187"
         ry="10.048" />
      <ellipse
         id="XMLID_32_"
         transform="matrix(0.3543 0.9351 -0.9351 0.3543 172.9698 -24.4475)"
         style="fill:#ffffff;fill-opacity:1;stroke:#000000;stroke-opacity:1"
         cx="104.188"
         cy="113.029"
         rx="17.187"
         ry="10.048" />
    </g>
    <g
       id="Eyes/Happy-ðŸ˜"
       transform="translate(116.38075,93.988997)"
       fill="#000000"
       fill-opacity="0.6"
       style="fill:#212529;fill-opacity:1">
      <path
         d="M 14.544151,20.20258 C 16.206008,16.783657 19.94798,14.4 24.297822,14.4 c 4.334487,0 8.065388,2.366858 9.735995,5.766412 0.496268,1.009866 -0.209924,1.836322 -0.922271,1.223909 -2.20599,-1.896516 -5.338701,-3.080911 -8.813724,-3.080911 -3.366336,0 -6.411439,1.111467 -8.604037,2.905067 -0.801671,0.655788 -1.635694,-0.01193 -1.149634,-1.011897 z"
         id="Squint"
         style="fill:#212529;fill-opacity:1" />
      <path
         d="M 66.744151,20.20258 C 68.406008,16.783657 72.14798,14.4 76.497822,14.4 c 4.334487,0 8.065387,2.366858 9.735995,5.766412 0.496268,1.009866 -0.209924,1.836322 -0.922271,1.223909 -2.20599,-1.896516 -5.338701,-3.080911 -8.813724,-3.080911 -3.366337,0 -6.411439,1.111467 -8.604037,2.905067 -0.801671,0.655788 -1.635694,-0.01193 -1.149634,-1.011897 z"
         id="path63"
         style="fill:#212529;fill-opacity:1" />
    </g>
    <g
       id="Eyebrow/Natural/Default-Natural"
       fill="#000000"
       fill-opacity="0.6"
       transform="translate(116.38075,86.788997)"
       style="fill:#212529;fill-opacity:1">
      <path
         d="M 23.435184,5.5891113 C 18.2498,6.2851159 10.163638,10.804723 10.839834,16.03603 c 0.02222,0.171219 0.281223,0.224582 0.392983,0.08161 C 13.470664,13.248302 30.773518,9.0328933 37.074841,9.9132436 37.651547,9.9940018 38.03226,9.3987309 37.638945,9.027186 34.26891,5.8453688 28.080341,4.9610234 23.435184,5.5891113"
         id="Eyebrow"
         transform="rotate(5,24.3,10.8)"
         style="fill:#212529;fill-opacity:1" />
      <path
         d="M 76.535184,5.5891113 C 71.3498,6.2851159 63.263638,10.804723 63.939834,16.03603 c 0.02222,0.171219 0.281223,0.224582 0.392983,0.08161 C 66.570664,13.248302 83.873518,9.0328933 90.174841,9.9132436 90.751547,9.9940018 91.13226,9.3987309 90.738945,9.027186 87.36891,5.8453688 81.180341,4.9610234 76.535184,5.5891113"
         id="path67"
         transform="matrix(-0.9961947,0.08715574,0.08715574,0.9961947,153.56419,-6.7047572)"
         style="fill:#212529;fill-opacity:1" />
    </g>
  </g>
  <g
     id="layer1">
    <g
       id="XMLID_1424_"
       style="enable-background:new 0 0 333.815 333.815">
      <path
         id="XMLID_1428_"
         style="fill:#212529;fill-opacity:1"
         d="m 166.623,156.886 -0.048,0.012 v 27.219 c 0.112,0.001 0.22225,0.002 0.334,0.009 31.91337,2.1165 43.48919,-17.24754 46.63814,-20.94408 0,0 4.3118,-6.37896 8.06491,-13.62388 3.8089,-7.35261 1.28883,-1.07733 3.03986,-6.97095 1.19296,-4.01526 -1.51008,-40.8703 -1.51008,-40.8703 0,0 -5.4753,40.63152 -15.95911,50.04041 -2.82579,2.53606 -6.24089,3.40637 -8.77072,4.70254 -13.337,6.83327 -31.789,0.42626 -31.789,0.42626 z" />
    </g>
    <g
       id="XMLID_1424_-1"
       transform="matrix(-1,0,0,1,334.25026,-0.012)">
      <path
         id="XMLID_1428_-3"
         style="fill:#212529;fill-opacity:1"
         d="m 167.62726,156.898 -1.14065,7.51301 0.0884,19.70599 c 0.112,0.001 0.22225,0.002 0.334,0.009 31.91337,2.1165 43.48919,-17.24754 46.63814,-20.94408 0,0 4.3118,-6.37896 8.06491,-13.62388 3.8089,-7.35261 1.28883,-1.07733 3.03986,-6.97095 1.19296,-4.01526 -2.32442,-37.17208 -2.32442,-37.17208 0,0 -4.66096,36.9333 -15.14477,46.34219 -2.82579,2.53606 -6.24089,3.40637 -8.77072,4.70254 -13.337,6.83327 -30.78474,0.43826 -30.78474,0.43826 z" />
    </g>
  </g>
  <g
     id="g34" />
  <g
     id="g36" />
  <g
     id="g38" />
  <g
     id="g40" />
  <g
     id="g42" />
  <g
     id="g44" />
  <g
     id="g46" />
  <g
     id="g48" />
  <g
     id="g50" />
  <g
     id="g52" />
  <g
     id="g54" />
  <g
     id="g56" />
  <g
     id="g58" />
  <g
     id="g60" />
  <g
     id="g62" />
</svg>
