<svg xmlns="http://www.w3.org/2000/svg" version="1.1" xmlns:xlink="http://www.w3.org/1999/xlink" width="512" height="512" x="0" y="0" viewBox="0 0 513 513" style="enable-background:new 0 0 512 512" xml:space="preserve" class=""><g><path fill="#ffffff" d="M414.383 216.419H304.597a8.016 8.016 0 0 0-8.016 8.016v64.129c0 4.427 3.589 4.935 8.016 4.935h109.786c50.046 0 90.617-14.864 90.617-37s-40.571-40.08-90.617-40.08z" opacity="0" data-original="#ffe09f" class=""></path><path fill="#ffffff" d="M320.629 256.5v-40.081h-16.032a8.016 8.016 0 0 0-8.016 8.016v64.129a8.016 8.016 0 0 0 8.016 8.016h109.786c37.15 0 69.038-9.898 83.026-24.048H336.661c-8.854 0-16.032-7.178-16.032-16.032z" opacity="0" data-original="#f6d190" class=""></path><path fill="#ffffff" d="m176.339 184.355 16.032 40.081L8 256.5l184.371 32.065-16.032 40.081 77.021-11.849c15.642-2.406 27.189-15.866 27.189-31.692v-57.208c0-15.826-11.547-29.285-27.189-31.692z" opacity="0" data-original="#ffe07d" class=""></path><path fill="#272627" d="M424.839 216.706v79.587C469.952 293.997 505 277.069 505 256.5s-35.048-37.497-80.161-39.794z" opacity="1" data-original="#ecbd83" class=""></path><path fill="#272627" d="M424.839 272.532v23.761c32.591-1.659 59.848-10.973 72.513-23.761z" opacity="1" data-original="#e2a975" class=""></path><path d="M481.695 220.843c-18.112-8.011-42.018-12.423-67.312-12.423H304.597c-8.832 0-16.016 7.185-16.016 16.016v64.129c0 8.832 7.185 16.016 16.016 16.016h72.146a8 8 0 0 0 0-16l-72.163-.016.016-64.145h109.786c.822 0 1.638.016 2.456.026v64.109c-.818.01-1.634.026-2.456.026h-5.576a8 8 0 0 0 0 16h5.576c25.294 0 49.2-4.412 67.312-12.423C501.882 283.228 513 270.565 513 256.5s-11.118-26.729-31.305-35.657zm-6.472 56.682c-11.73 5.188-26.374 8.67-42.384 10.187v-62.424c16.01 1.517 30.653 4.999 42.384 10.187C488.859 241.506 497 249.366 497 256.5s-8.141 14.993-21.777 21.025zM255.704 312.668l-67.04 6.704 11.135-27.837a8.001 8.001 0 0 0-6.057-10.853L54.69 256.5l139.051-24.183a8.001 8.001 0 0 0 6.057-10.853l-11.135-27.837 67.04 6.704c4.391.434 8.316-2.768 8.756-7.165a8 8 0 0 0-7.165-8.756l-80.161-8.016a8.002 8.002 0 0 0-8.224 10.932l12.367 30.918L6.629 248.618a8 8 0 0 0 0 15.764l174.649 30.374-12.367 30.918a8 8 0 0 0 8.224 10.931l80.161-8.016a8.001 8.001 0 0 0 7.165-8.756c-.44-4.397-4.37-7.597-8.757-7.165z" fill="#272627" opacity="1" data-original="#000000" class=""></path><path d="M264.516 248.5h-48.097a8 8 0 0 0 0 16h48.097a8 8 0 0 0 0-16zM264.516 216.435h-16.032a8 8 0 0 0 0 16h16.032a8 8 0 0 0 0-16zM264.516 280.564h-16.032a8 8 0 0 0 0 16h16.032a8 8 0 0 0 0-16z" fill="#272627" opacity="1" data-original="#000000" class=""></path></g></svg>