<svg xmlns="http://www.w3.org/2000/svg" version="1.1" xmlns:xlink="http://www.w3.org/1999/xlink" width="512" height="512" x="0" y="0" viewBox="0 0 512 512" style="enable-background:new 0 0 512 512" xml:space="preserve" class=""><g><path d="M437.001 481c-2.911 0-5.812-.846-8.321-2.519L342.458 421H195c-24.813 0-45-20.187-45-45v-90c0-8.284 6.716-15 15-15s15 6.716 15 15v90c0 8.271 6.729 15 15 15h152c2.961 0 5.856.876 8.32 2.519L422 437.972V406c0-8.284 6.716-15 15-15h30c8.271 0 15-6.729 15-15V196c0-8.271-6.729-15-15-15H347c-8.284 0-15-6.716-15-15s6.716-15 15-15h120c24.813 0 45 20.187 45 45v180c0 24.813-20.187 45-45 45h-15v45a15 15 0 0 1-14.999 15z" style="" fill="#272627" data-original="#aa3dc8" class="" opacity="1"></path><path d="M74.999 361A15 15 0 0 1 60 346v-45H45c-24.813 0-45-20.187-45-45V76c0-24.813 20.187-45 45-45h272c24.813 0 45 20.187 45 45v180c0 24.813-20.187 45-45 45H169.542L83.32 358.481A14.991 14.991 0 0 1 74.999 361zM45 61c-8.271 0-15 6.729-15 15v180c0 8.271 6.729 15 15 15h30c8.284 0 15 6.716 15 15v31.972l66.68-44.453A14.996 14.996 0 0 1 165 271h152c8.271 0 15-6.729 15-15V76c0-8.271-6.729-15-15-15H45z" style="" fill="#272627" data-original="#fedb41" class="" opacity="1"></path><path d="M195 211H75c-8.284 0-15-6.716-15-15s6.716-15 15-15h120c8.284 0 15 6.716 15 15s-6.716 15-15 15zM287 151H75c-8.284 0-15-6.716-15-15s6.716-15 15-15h212c8.284 0 15 6.716 15 15s-6.716 15-15 15z" style="" fill="#272627" data-original="#994c0f" class="" opacity="1"></path></g></svg>