<?xml version="1.0" encoding="UTF-8" standalone="no"?>
<svg
   version="1.1"
   width="512"
   height="512"
   x="0"
   y="0"
   viewBox="0 0 682.667 682.667"
   style="enable-background:new 0 0 512 512"
   xml:space="preserve"
   class=""
   id="svg31"
   xmlns="http://www.w3.org/2000/svg"><defs
     id="defs35" /><g
     id="g29"><defs
       id="defs5"><clipPath
         id="a"
         clipPathUnits="userSpaceOnUse"><path
           d="M0 512h512V0H0Z"
           fill="#272627"
           opacity="1"
           data-original="#000000"
           class=""
           id="path2" /></clipPath></defs><g
       clip-path="url(#a)"
       transform="matrix(1.33333 0 0 -1.33333 0 682.667)"
       id="g27"><path
         d="M0 0c-12.497-12.497-32.758-12.497-45.255 0s-12.497 32.758 0 45.255 32.758 12.497 45.255 0S12.497 12.497 0 0"
         style="fill-opacity:1;fill-rule:nonzero;stroke:#272627;stroke-opacity:1"
         transform="translate(444.576 415.32)"
         fill="#ffffff"
         data-original="#f5737f"
         class=""
         opacity="1"
         id="path7" /><text
         xml:space="preserve"
         style="font-style:normal;font-weight:normal;font-size:18.6667px;line-height:1.25;font-family:sans-serif;fill:#000000;fill-opacity:1;stroke:none;stroke-width:1"
         x="-31.624678"
         y="-600.75989"
         id="text2310-9"
         transform="matrix(0.70710678,-0.70710678,-0.70710678,-0.70710678,0,0)"><tspan
           id="tspan2308-4"
           style="font-style:normal;font-variant:normal;font-weight:900;font-stretch:normal;font-size:18.6667px;font-family:Arial;-inkscape-font-specification:'Arial Heavy';stroke-width:1"
           x="-31.624678"
           y="-600.75989">OPS</tspan></text><path
         d="M0 0c-12.497-12.497-32.758-12.497-45.255 0s-12.497 32.758 0 45.255 32.758 12.497 45.255 0S12.497 12.497 0 0"
         style="fill-opacity:1;fill-rule:nonzero;stroke:#272627;stroke-opacity:1"
         transform="translate(112.68 51.424)"
         fill="#ffffff"
         data-original="#d8ec84"
         class=""
         opacity="1"
         id="path9" /><path
         d="M0 0c-12.497-12.497-32.758-12.497-45.255 0s-12.497 32.758 0 45.255 32.758 12.497 45.255 0S12.497 12.497 0 0Z"
         style="stroke-width:2.00000598;stroke-linecap:round;stroke-linejoin:round;stroke-miterlimit:10;stroke-dasharray:none;stroke-opacity:1;stroke:#ffffff"
         transform="translate(444.576 415.32)"
         fill="none"
         stroke="#272627"
         stroke-width="20"
         stroke-linecap="round"
         stroke-linejoin="round"
         stroke-miterlimit="10"
         stroke-dasharray="none"
         stroke-opacity=""
         data-original="#000000"
         class=""
         opacity="1"
         id="path11" /><path
         d="M0 0c-12.497-12.497-32.758-12.497-45.255 0s-12.497 32.758 0 45.255 32.758 12.497 45.255 0S12.497 12.497 0 0Z"
         style="stroke-width:2.00000598;stroke-linecap:round;stroke-linejoin:round;stroke-miterlimit:10;stroke-dasharray:none;stroke-opacity:1;stroke:#ffffff"
         transform="translate(112.68 51.424)"
         fill="none"
         stroke="#272627"
         stroke-width="20"
         stroke-linecap="round"
         stroke-linejoin="round"
         stroke-miterlimit="10"
         stroke-dasharray="none"
         stroke-opacity=""
         data-original="#000000"
         class=""
         opacity="1"
         id="path13" /><path
         d="M0 0a247.164 247.164 0 0 1 48.513-4.783c135.862 0 246 110.138 246 246 0 59.309-20.992 113.713-55.947 156.196"
         style="stroke-width:2.00000598;stroke-linecap:round;stroke-linejoin:round;stroke-miterlimit:10;stroke-dasharray:none;stroke-opacity:1;stroke:#ffffff"
         transform="translate(207.487 14.783)"
         fill="none"
         stroke="#272627"
         stroke-width="20"
         stroke-linecap="round"
         stroke-linejoin="round"
         stroke-miterlimit="10"
         stroke-dasharray="none"
         stroke-opacity=""
         data-original="#000000"
         class=""
         opacity="1"
         id="path15" /><path
         d="M0 0a247.138 247.138 0 0 1-48.98 4.877c-135.862 0-246-110.138-246-246 0-59.309 20.992-113.713 55.947-156.196"
         style="stroke-width:2.00000598;stroke-linecap:round;stroke-linejoin:round;stroke-miterlimit:10;stroke-dasharray:none;stroke-opacity:1;stroke:#ffffff"
         transform="translate(304.98 497.123)"
         fill="none"
         stroke="#272627"
         stroke-width="20"
         stroke-linecap="round"
         stroke-linejoin="round"
         stroke-miterlimit="10"
         stroke-dasharray="none"
         stroke-opacity=""
         data-original="#000000"
         class=""
         opacity="1"
         id="path17" /><path
         d="M 69.864209,94.361542 H 109.86432 V 54.361422 H 69.864209 Z"
         fill="none"
         id="path2-5"
         style="stroke-width:1.66667" /><path
         d="M0 0v0"
         style="stroke-width:20;stroke-linecap:round;stroke-linejoin:round;stroke-miterlimit:10;stroke-dasharray:none;stroke-opacity:1;stroke:#272627"
         transform="translate(348.078 484.185)"
         fill="none"
         stroke="#272627"
         stroke-width="20"
         stroke-linecap="round"
         stroke-linejoin="round"
         stroke-miterlimit="10"
         stroke-dasharray="none"
         stroke-opacity=""
         data-original="#000000"
         class=""
         opacity="1"
         id="path23" /><path
         d="M0 0v0"
         style="stroke-width:20;stroke-linecap:round;stroke-linejoin:round;stroke-miterlimit:10;stroke-dasharray:none;stroke-opacity:1;stroke:#272627"
         transform="translate(164.358 27.639)"
         fill="none"
         stroke="#272627"
         stroke-width="20"
         stroke-linecap="round"
         stroke-linejoin="round"
         stroke-miterlimit="10"
         stroke-dasharray="none"
         stroke-opacity=""
         data-original="#000000"
         class=""
         opacity="1"
         id="path25" /><text
         xml:space="preserve"
         style="font-style:normal;font-weight:normal;font-size:18.6667px;line-height:1.25;font-family:sans-serif;fill:#000000;fill-opacity:1;stroke:none;stroke-width:1"
         x="-31.252792"
         y="123.01755"
         id="text2310"
         transform="matrix(-0.70710678,0.70710678,0.70710678,0.70710678,0,0)"><tspan
           id="tspan2308"
           style="font-style:normal;font-variant:normal;font-weight:900;font-stretch:normal;font-size:18.6667px;font-family:Arial;-inkscape-font-specification:'Arial Heavy';stroke-width:1"
           x="-31.252792"
           y="123.01755">DEV</tspan></text><text
         xml:space="preserve"
         style="font-style:normal;font-weight:normal;font-size:40.0001px;line-height:1.25;font-family:sans-serif;fill:#000000;fill-opacity:1;stroke:none;stroke-width:1"
         x="416.57983"
         y="-435.80658"
         id="text11550"
         transform="scale(1,-1)"><tspan
           id="tspan11548"
           style="stroke-width:1" /></text><circle
         style="fill:#ffffff;fill-opacity:1;stroke:none;stroke-width:1.92539;stroke-miterlimit:10;stroke-opacity:1"
         id="path1208"
         cx="348.27704"
         cy="-483.75446"
         transform="scale(1,-1)"
         r="10.500031" /><circle
         style="fill:#ffffff;fill-opacity:1;stroke:none;stroke-width:1.92539;stroke-miterlimit:10;stroke-opacity:1"
         id="path1208-9"
         cx="164.19122"
         cy="-27.924612"
         transform="scale(1,-1)"
         r="10.500031" /></g></g></svg>
