<?xml version="1.0" encoding="UTF-8" standalone="no"?>
<svg
   version="1.1"
   width="512"
   height="512"
   x="0"
   y="0"
   viewBox="0 0 682.667 682.667"
   style="enable-background:new 0 0 512 512"
   xml:space="preserve"
   class=""
   id="svg31"
   xmlns="http://www.w3.org/2000/svg"><defs
     id="defs35" /><g
     id="g29"><defs
       id="defs5"><clipPath
         id="a"
         clipPathUnits="userSpaceOnUse"><path
           d="M0 512h512V0H0Z"
           fill="#272627"
           opacity="1"
           data-original="#000000"
           class=""
           id="path2" /></clipPath></defs><g
       clip-path="url(#a)"
       transform="matrix(1.33333 0 0 -1.33333 0 682.667)"
       id="g27"><path
         d="M0 0c-12.497-12.497-32.758-12.497-45.255 0s-12.497 32.758 0 45.255 32.758 12.497 45.255 0S12.497 12.497 0 0"
         style="fill-opacity:1;fill-rule:nonzero;stroke:#272627;stroke-opacity:1"
         transform="translate(444.576 415.32)"
         fill="#ffffff"
         data-original="#f5737f"
         class=""
         opacity="1"
         id="path7" /><path
         d="M0 0c-12.497-12.497-32.758-12.497-45.255 0s-12.497 32.758 0 45.255 32.758 12.497 45.255 0S12.497 12.497 0 0"
         style="fill-opacity:1;fill-rule:nonzero;stroke:#272627;stroke-opacity:1"
         transform="translate(112.68 51.424)"
         fill="#ffffff"
         data-original="#d8ec84"
         class=""
         opacity="1"
         id="path9" /><path
         d="M0 0c-12.497-12.497-32.758-12.497-45.255 0s-12.497 32.758 0 45.255 32.758 12.497 45.255 0S12.497 12.497 0 0Z"
         style="stroke-width:2.00000598;stroke-linecap:round;stroke-linejoin:round;stroke-miterlimit:10;stroke-dasharray:none;stroke-opacity:1;stroke:#272627"
         transform="translate(444.576 415.32)"
         fill="none"
         stroke="#272627"
         stroke-width="20"
         stroke-linecap="round"
         stroke-linejoin="round"
         stroke-miterlimit="10"
         stroke-dasharray="none"
         stroke-opacity=""
         data-original="#000000"
         class=""
         opacity="1"
         id="path11" /><path
         d="M0 0c-12.497-12.497-32.758-12.497-45.255 0s-12.497 32.758 0 45.255 32.758 12.497 45.255 0S12.497 12.497 0 0Z"
         style="stroke-width:2.00000598;stroke-linecap:round;stroke-linejoin:round;stroke-miterlimit:10;stroke-dasharray:none;stroke-opacity:1;stroke:#272627"
         transform="translate(112.68 51.424)"
         fill="none"
         stroke="#272627"
         stroke-width="20"
         stroke-linecap="round"
         stroke-linejoin="round"
         stroke-miterlimit="10"
         stroke-dasharray="none"
         stroke-opacity=""
         data-original="#000000"
         class=""
         opacity="1"
         id="path13" /><path
         d="M0 0a247.164 247.164 0 0 1 48.513-4.783c135.862 0 246 110.138 246 246 0 59.309-20.992 113.713-55.947 156.196"
         style="stroke-width:2.00000598;stroke-linecap:round;stroke-linejoin:round;stroke-miterlimit:10;stroke-dasharray:none;stroke-opacity:1;stroke:#272627"
         transform="translate(207.487 14.783)"
         fill="none"
         stroke="#272627"
         stroke-width="20"
         stroke-linecap="round"
         stroke-linejoin="round"
         stroke-miterlimit="10"
         stroke-dasharray="none"
         stroke-opacity=""
         data-original="#000000"
         class=""
         opacity="1"
         id="path15" /><path
         d="M0 0a247.138 247.138 0 0 1-48.98 4.877c-135.862 0-246-110.138-246-246 0-59.309 20.992-113.713 55.947-156.196"
         style="stroke-width:2.00000598;stroke-linecap:round;stroke-linejoin:round;stroke-miterlimit:10;stroke-dasharray:none;stroke-opacity:1;stroke:#272627"
         transform="translate(304.98 497.123)"
         fill="none"
         stroke="#272627"
         stroke-width="20"
         stroke-linecap="round"
         stroke-linejoin="round"
         stroke-miterlimit="10"
         stroke-dasharray="none"
         stroke-opacity=""
         data-original="#000000"
         class=""
         opacity="1"
         id="path17" /><path
         d="m 421.8194,429.84337 c -4.41102,0 -7.98693,3.57581 -7.98693,7.98693 0,4.41101 3.57591,7.98682 7.98693,7.98682 4.411,0 7.98692,-3.57581 7.98692,-7.98682 0,-4.41112 -3.57592,-7.98693 -7.98692,-7.98693 m 15.92711,11.43474 a 16.198521,16.198521 0 0 1 -2.23453,5.39258 l 2.10697,2.10709 -4.86374,4.86022 -2.10532,-2.10533 a 16.195552,16.195552 0 0 1 -5.39248,2.23443 v 2.97759 h -6.87604 v -2.97759 a 16.195552,16.195552 0 0 1 -5.39246,-2.23443 l -2.10533,2.10533 -4.86375,-4.86022 2.10698,-2.10709 a 16.198521,16.198521 0 0 1 -2.23454,-5.39258 h -2.98539 l -0.004,-6.87593 h 2.98903 a 16.200061,16.200061 0 0 1 2.23453,-5.39269 l -2.115,-2.115 4.86023,-4.86386 2.11676,2.11687 a 16.197971,16.197971 0 0 1 5.39269,-2.23464 v -2.99694 h 6.87604 v 2.99694 a 16.197971,16.197971 0 0 1 5.39269,2.23464 l 2.11676,-2.11687 4.86022,4.86386 -2.115,2.115 a 16.200061,16.200061 0 0 1 2.23454,5.39269 h 2.98902 v 6.87593 z"
         style="fill-opacity:1;fill-rule:nonzero;stroke:#272627;stroke-width:0.109967;stroke-opacity:1;fill:#272627"
         fill="#272627"
         data-original="#91def5"
         class=""
         opacity="1"
         id="path19" /><path
         d="m 421.8194,429.84337 c -4.41102,0 -7.98693,3.57581 -7.98693,7.98693 0,4.41101 3.57591,7.98682 7.98693,7.98682 4.411,0 7.98692,-3.57581 7.98692,-7.98682 0,-4.41112 -3.57592,-7.98693 -7.98692,-7.98693 z m 15.92711,11.43474 a 16.198521,16.198521 0 0 1 -2.23453,5.39258 l 2.10697,2.10709 -4.86374,4.86022 -2.10532,-2.10533 a 16.195552,16.195552 0 0 1 -5.39248,2.23443 v 2.97759 h -6.87604 v -2.97759 a 16.195552,16.195552 0 0 1 -5.39246,-2.23443 l -2.10533,2.10533 -4.86375,-4.86022 2.10698,-2.10709 a 16.198521,16.198521 0 0 1 -2.23454,-5.39258 h -2.98539 l -0.004,-6.87593 h 2.98903 a 16.200061,16.200061 0 0 1 2.23453,-5.39269 l -2.115,-2.115 4.86023,-4.86386 2.11676,2.11687 a 16.197971,16.197971 0 0 1 5.39269,-2.23464 v -2.99694 h 6.87604 v 2.99694 a 16.197971,16.197971 0 0 1 5.39269,2.23464 l 2.11676,-2.11687 4.86022,4.86386 -2.115,2.115 a 16.200061,16.200061 0 0 1 2.23454,5.39269 h 2.98902 v 6.87593 z"
         style="stroke:#272627;stroke-width:2.19935;stroke-linecap:round;stroke-linejoin:round;stroke-miterlimit:10;stroke-dasharray:none;stroke-opacity:1;fill:#272627;fill-opacity:1"
         fill="none"
         stroke="#272627"
         stroke-width="20"
         stroke-linecap="round"
         stroke-linejoin="round"
         stroke-miterlimit="10"
         stroke-dasharray="none"
         stroke-opacity=""
         data-original="#000000"
         class=""
         opacity="1"
         id="path21" /><path
         d="M 69.864209,94.361542 H 109.86432 V 54.361422 H 69.864209 Z"
         fill="none"
         id="path2-5"
         style="stroke-width:1.66667" /><path
         d="m 85.530922,66.694792 -7.66669,7.66669 7.66669,7.66669 -2.33334,2.33334 -10.00003,-10.00003 10.00003,-10.00003 z m 8.666693,0 7.666685,7.66669 -7.666685,7.66669 2.333342,2.33334 10.000023,-10.00003 -10.000023,-10.00003 z"
         id="path4"
         style="stroke-width:1.66667;fill:#272627;fill-opacity:1" /><path
         d="M0 0v0"
         style="stroke-width:20;stroke-linecap:round;stroke-linejoin:round;stroke-miterlimit:10;stroke-dasharray:none;stroke-opacity:1;stroke:#272627"
         transform="translate(348.078 484.185)"
         fill="none"
         stroke="#272627"
         stroke-width="20"
         stroke-linecap="round"
         stroke-linejoin="round"
         stroke-miterlimit="10"
         stroke-dasharray="none"
         stroke-opacity=""
         data-original="#000000"
         class=""
         opacity="1"
         id="path23" /><path
         d="M0 0v0"
         style="stroke-width:20;stroke-linecap:round;stroke-linejoin:round;stroke-miterlimit:10;stroke-dasharray:none;stroke-opacity:1;stroke:#272627"
         transform="translate(164.358 27.639)"
         fill="none"
         stroke="#272627"
         stroke-width="20"
         stroke-linecap="round"
         stroke-linejoin="round"
         stroke-miterlimit="10"
         stroke-dasharray="none"
         stroke-opacity=""
         data-original="#000000"
         class=""
         opacity="1"
         id="path25" /></g></g></svg>
