<svg xmlns="http://www.w3.org/2000/svg" version="1.1" xmlns:xlink="http://www.w3.org/1999/xlink" width="512" height="512" x="0" y="0" viewBox="0 0 512 512" style="enable-background:new 0 0 512 512" xml:space="preserve" class=""><g><path fill="#e0e0e2" d="M504.5 309.238V202.762h-76.871a178.374 178.374 0 0 0-12.64-30.457l54.374-54.375-75.293-75.293-54.328 54.332c-9.668-5.102-19.894-9.309-30.504-12.598V7.5H202.762v76.871a178.82 178.82 0 0 0-30.457 12.64L117.93 42.638 42.637 117.93l54.375 54.375a178.82 178.82 0 0 0-12.64 30.457H7.5v106.476h76.871a178.374 178.374 0 0 0 12.64 30.457L42.638 394.07l75.293 75.293 54.375-54.375a178.374 178.374 0 0 0 30.457 12.64V504.5h106.476v-76.828c10.61-3.29 20.793-7.586 30.457-12.684l54.375 54.375 75.293-75.293-54.375-54.375a178.505 178.505 0 0 0 12.64-30.457zm0 0" opacity="0" data-original="#e0e0e2" class=""></path><path fill="#e0e0e2" d="M201.117 329.613c-18.86 0-37.719-7.18-52.074-21.535-13.91-13.914-21.57-32.406-21.57-52.078s7.66-38.168 21.57-52.078c28.715-28.715 75.437-28.715 104.152 0l84.899 84.898c18.097 18.098 47.547 18.098 65.64 0 8.77-8.765 13.598-20.422 13.598-32.82s-4.828-24.055-13.594-32.82c-18.097-18.102-47.547-18.102-65.644-.004L305.274 256l-19.258-19.254 32.824-32.824c28.715-28.715 75.437-28.711 104.152 0 28.715 28.715 28.715 75.437 0 104.156-28.715 28.711-75.437 28.715-104.152 0l-84.899-84.902c-18.097-18.098-47.546-18.098-65.644.004-18.098 18.097-18.098 47.543 0 65.64 18.098 18.098 47.547 18.098 65.644 0l32.82-32.82 19.255 19.254-32.82 32.824c-14.356 14.356-33.216 21.535-52.079 21.535zm0 0" opacity="0" data-original="#c6c5ca" class=""></path><path fill="#272627" d="M171.117 329.613c-18.86 0-37.719-7.18-52.074-21.535-13.91-13.914-21.57-32.406-21.57-52.078s7.66-38.168 21.57-52.078c28.715-28.715 75.437-28.715 104.152 0l84.899 84.898c18.097 18.098 47.547 18.098 65.64 0 8.77-8.765 13.598-20.422 13.598-32.82s-4.828-24.055-13.594-32.82c-18.097-18.102-47.547-18.102-65.644-.004L275.274 256l-19.258-19.254 32.824-32.824c28.715-28.715 75.437-28.711 104.152 0 28.715 28.715 28.715 75.437 0 104.156-28.715 28.711-75.437 28.715-104.152 0l-84.899-84.902c-18.097-18.098-47.546-18.098-65.644.004-18.098 18.097-18.098 47.543 0 65.64 18.098 18.098 47.547 18.098 65.644 0l32.82-32.82 19.255 19.254-32.82 32.824c-14.356 14.356-33.216 21.535-52.079 21.535zm0 0" opacity="1" data-original="#57a4ff" class=""></path><g fill="#c6c5ca"><path d="M202.305 97.012a178.374 178.374 0 0 1 30.457-12.64V7.5h-30v76.871a180.412 180.412 0 0 0-9.758 3.34zM369.742 96.969l39.328-39.332-15-15-45.062 45.062a176.382 176.382 0 0 1 20.734 9.27zM84.371 202.762h30a178.374 178.374 0 0 1 12.64-30.457L72.638 117.93l60.293-60.293-15-15-75.293 75.293 54.375 54.375a178.374 178.374 0 0 0-12.64 30.457zM72.637 394.07l54.375-54.375a178.82 178.82 0 0 1-12.64-30.457h-30a178.82 178.82 0 0 0 12.64 30.457L42.637 394.07l75.293 75.293 15-15zM369.695 414.988a181.747 181.747 0 0 1-20.675 9.324l45.05 45.051 15-15zM7.5 202.762h30v106.476h-30zM202.305 414.988l-9.301 9.301c3.21 1.203 6.46 2.316 9.758 3.34V504.5h30v-76.871a178.374 178.374 0 0 1-30.457-12.64zm0 0" fill="#e0e0e2" opacity="0" data-original="#c6c5ca" class=""></path></g><path fill="#272627" d="M355.914 299.922c16.223 5.512 34.91 1.812 47.824-11.102a46.631 46.631 0 0 0 6.63-8.336 74.13 74.13 0 0 0 0-48.968 46.631 46.631 0 0 0-6.63-8.336c-12.91-12.91-31.597-16.614-47.824-11.102a46.135 46.135 0 0 1 17.824 11.102c8.766 8.765 13.594 20.422 13.594 32.82s-4.828 24.055-13.594 32.824a46.172 46.172 0 0 1-17.824 11.098zM236.762 256l-32.82 32.82a46.135 46.135 0 0 1-17.825 11.102c16.223 5.512 34.91 1.812 47.824-11.102l17.82-17.82zM149.043 308.078c-7.98-7.98-13.902-17.465-17.5-27.816-9.09-14.828-9.09-33.696 0-48.524 3.598-10.351 9.52-19.836 17.5-27.816a73.237 73.237 0 0 1 37.074-20.004c-23.48-4.848-48.89 1.82-67.074 20.004-13.91 13.91-21.57 32.406-21.57 52.078s7.66 38.168 21.57 52.078c14.355 14.356 33.215 21.535 52.074 21.535 5.031 0 10.059-.511 15-1.531a73.237 73.237 0 0 1-37.074-20.004zM318.84 308.078l-32.824-32.824-15 15 17.824 17.824c18.183 18.184 43.594 24.852 67.074 20.004a73.237 73.237 0 0 1-37.074-20.004zM286.016 236.746l32.824-32.824a73.237 73.237 0 0 1 37.074-20.004c-23.48-4.848-48.89 1.82-67.074 20.004l-17.824 17.82zm0 0" opacity="1" data-original="#006df0" class=""></path><path d="M512 316.738V195.262h-78.934a186.176 186.176 0 0 0-8.925-21.504l55.828-55.828L394.07 32.03l-55.785 55.785a186.855 186.855 0 0 0-21.547-8.886V0H195.262v78.934a187.276 187.276 0 0 0-21.504 8.925L117.93 32.031 32.03 117.93l55.828 55.828a186.462 186.462 0 0 0-8.925 21.504H0v121.476h78.934c2.511 7.32 5.5 14.516 8.925 21.504L32.031 394.07l85.899 85.899 55.828-55.828a186.58 186.58 0 0 0 21.504 8.925V512h121.476v-78.895c7.258-2.5 14.461-5.5 21.508-8.96l55.824 55.824 85.899-85.899-55.828-55.828a186.462 186.462 0 0 0 8.925-21.504zm-53.242 77.332-64.688 64.688-52.98-52.985-4.895 2.582c-9.48 5-19.297 9.09-29.175 12.153l-5.282 1.633V497h-91.476v-74.902c-15.992-4.953-22.004-7.172-39.352-16.325l-52.98 52.985-64.684-64.688 52.98-52.98c-9.164-17.371-11.37-23.356-16.324-39.352H15v-91.476h74.898c4.91-15.84 7.137-21.934 16.329-39.352l-52.98-52.98 64.683-64.688 52.98 52.985 4.895-2.582a171.868 171.868 0 0 1 29.175-12.11l5.282-1.637V15h91.48v74.898l5.278 1.637c10.222 3.168 20.054 7.227 29.222 12.067l4.895 2.578 52.937-52.938 64.684 64.688-52.98 52.98c7.933 15.035 10.62 20.934 16.324 39.352H497v91.476h-74.898c-2.168 6.996-5.579 18.977-13.747 34.457l-2.582 4.895zm0 0" fill="#272627" opacity="1" data-original="#000000" class=""></path><path d="m68.625 392.82 34.98-34.98 10.606 10.605-34.98 34.98zM228.5 313.379l18.68-18.68-10.61-10.605-18.675 18.68c-25.81 25.808-67.739 25.808-93.547 0-12.496-12.493-19.375-29.102-19.375-46.774 0-17.668 6.879-34.277 19.375-46.77 25.789-25.792 67.754-25.792 93.547-.003l84.894 84.902c21.024 21.02 55.23 21.02 76.25-.004 21.07-21.066 21.078-55.176 0-76.246-21.039-21.047-55.2-21.047-76.25-.004l-18.68 18.68 10.61 10.605 18.676-18.676c7.34-7.34 17.113-11.379 27.52-11.379 21.597 0 38.917 17.442 38.917 38.895 0 10.398-4.047 20.168-11.398 27.52-15.172 15.171-39.86 15.175-55.036 0L228.5 198.62c-31.64-31.64-83.121-31.637-114.762 0-31.71 31.715-31.715 83.043 0 114.762 31.672 31.668 83.09 31.668 114.762-.004zm0 0" fill="#272627" opacity="1" data-original="#000000" class=""></path><path d="M398.297 198.617c-31.64-31.637-83.121-31.637-114.762.004l-18.68 18.68 10.606 10.605 18.68-18.68c25.789-25.792 67.757-25.788 93.547 0 25.792 25.79 25.792 67.758 0 93.547-25.79 25.793-67.754 25.793-93.547 0l-84.899-84.898c-21.023-21.023-55.226-21.023-76.25 0-21.02 21.023-21.02 55.227 0 76.25 21.024 21.023 55.23 21.023 76.25 0l18.68-18.68-10.606-10.605-18.68 18.68c-15.171 15.171-39.863 15.171-55.034 0-15.176-15.176-15.176-39.864 0-55.04 15.171-15.171 39.859-15.171 55.035 0l84.898 84.903c31.66 31.656 83.14 31.617 114.762 0 31.637-31.64 31.637-83.121 0-114.766zM166.547 345.45l-10.606 10.605c55.301 55.3 144.805 55.304 200.114 0l-10.61-10.606c-49.437 49.438-129.457 49.446-178.898 0zm0 0" fill="#272627" opacity="1" data-original="#000000" class=""></path><path fill="#272627" d="m356.055 126.617-10.61-10.605 10.606-10.606 10.61 10.606zm17.675-17.676-10.609-10.609 10.61-10.605 10.605 10.609zm17.676-17.68-10.605-10.605 13.926-13.926 10.609 10.606zM345.445 166.55c-37.789-37.784-93.593-46.827-140.144-26.484l-6.008-13.746c51.578-22.535 114.098-13.035 156.762 29.625zm-178.898 0-10.606-10.605a143.46 143.46 0 0 1 11.79-10.554l9.37 11.71a129.735 129.735 0 0 0-10.554 9.45zm18.14-15.066-8.464-12.382a140.503 140.503 0 0 1 13.554-8.192l7.024 13.254a126.434 126.434 0 0 0-12.113 7.32zm0 0" opacity="1" data-original="#ffffff" class=""></path></g></svg>