<svg xmlns="http://www.w3.org/2000/svg" version="1.1" xmlns:xlink="http://www.w3.org/1999/xlink" width="512" height="512" x="0" y="0" viewBox="0 0 24 24" style="enable-background:new 0 0 512 512" xml:space="preserve" class=""><g><path fill="#272627" d="M23.77 11.08a5.12 5.12 0 0 0-2.41-.77 2.7 2.7 0 0 0-.44 0 4.24 4.24 0 0 0-1.64-2.26.5.5 0 0 0-.64.07 4.06 4.06 0 0 0-.72 3.28.52.52 0 0 1-.13.41.45.45 0 0 1-.34.15H17V9.5a.5.5 0 0 0-.5-.5H14V3.5a.5.5 0 0 0-.5-.5h-3a.5.5 0 0 0-.5.5V6H4.5a.5.5 0 0 0-.5.5V9H1.5a.5.5 0 0 0-.5.5V12H.5a.5.5 0 0 0-.5.5C0 20.17 5.59 21 8 21a14.29 14.29 0 0 0 12.38-7.08 5.13 5.13 0 0 0 3.55-2.17.5.5 0 0 0-.16-.67zM16 12h-2v-2h2zM5 12v-2h2v2zm3 0v-2h2v2zm5-5v2h-2V7zm-2 5v-2h2v2zm0-8h2v2h-2zm-1 5H8V7h2zM5 7h2v2H5zm-3 3h2v2H2zm3 7a1 1 0 1 1 1-1 1 1 0 0 1-1 1z" opacity="1" data-original="#303c42" class=""></path></g></svg>