<?xml version="1.0" encoding="UTF-8" standalone="no"?>
<svg
   version="1.1"
   width="512"
   height="512"
   x="0"
   y="0"
   viewBox="0 0 24 24"
   style="enable-background:new 0 0 512 512"
   id="svg12"
   xmlns="http://www.w3.org/2000/svg">
  <defs
     id="defs16" />
  <g
     id="g10">
    <g
       fill="none"
       stroke="#303c42"
       stroke-linecap="round"
       stroke-linejoin="round"
       id="g8"
       style="stroke:#000000;stroke-opacity:1">
      <circle
         cx="5.04"
         cy="16"
         r=".5"
         fill=""
         opacity="1"
         id="circle2"
         style="stroke:#000000;stroke-opacity:1" />
      <path
         d="M1.5 9.5h3v3h-3zM4.5 9.5h3v3h-3zM7.5 9.5h3v3h-3zM10.5 9.5h3v3h-3zM4.5 6.5h3v3h-3zM7.5 6.5h3v3h-3zM10.5 6.5h3v3h-3zM10.5 3.5h3v3h-3zM13.5 9.5h3v3h-3z"
         fill=""
         opacity="1"
         id="path4"
         style="stroke:#000000;stroke-opacity:1" />
      <path
         d="M23.5 11.5s-1.75-1.12-3-.5A3.45 3.45 0 0 0 19 8.5a3.64 3.64 0 0 0-.58 2.88 1 1 0 0 1-1 1.12H.5c0 6.25 3.83 8 7.5 8a13.76 13.76 0 0 0 12.06-7 4.68 4.68 0 0 0 3.44-2z"
         fill=""
         opacity="1"
         id="path6"
         style="stroke:#000000;stroke-opacity:1" />
    </g>
  </g>
</svg>
