<svg xmlns="http://www.w3.org/2000/svg" version="1.1" xmlns:xlink="http://www.w3.org/1999/xlink" width="512" height="512" x="0" y="0" viewBox="0 0 415.178 415" style="enable-background:new 0 0 512 512" xml:space="preserve" class=""><g><path fill="#3a7c78" d="M315.77 256.09c0 84.828-68.77 153.598-153.602 153.598-84.828 0-153.598-68.77-153.598-153.598 0-84.832 68.77-153.602 153.598-153.602 84.832 0 153.602 68.77 153.602 153.602zm0 0" opacity="0" data-original="#c1dbdc" class=""></path><path fill="#272627" d="M227.82 111.953c80.782 0 146.27 66.063 146.27 147.55H81.55c0-81.487 65.49-147.55 146.27-147.55zm0 0" opacity="1" data-original="#6b4f5b" class=""></path><path fill="#272627" d="M374.086 266.328H81.55a6.823 6.823 0 0 1-6.824-6.824c0-85.125 68.675-154.375 153.09-154.375 84.417 0 153.097 69.25 153.097 154.375a6.824 6.824 0 0 1-6.828 6.824zM88.543 252.676h278.555C363.562 178.238 302.44 118.78 227.82 118.78c-74.62 0-135.742 59.457-139.277 133.895zm0 0" opacity="1" data-original="#4c241d" class=""></path><path fill="#ffffff" d="M107.652 343.652c-16.453-23.867-26.101-52.87-26.101-84.148H374.09c0 81.488-65.488 147.547-146.27 147.547-25.39 0-49.27-6.524-70.082-18.004" opacity="1" data-original="#ffffff"></path><path fill="#272627" d="M227.816 413.875c-25.644 0-51.02-6.516-73.375-18.852a6.82 6.82 0 0 1-2.68-9.273 6.815 6.815 0 0 1 9.274-2.68c20.344 11.22 43.438 17.153 66.785 17.153 74.625 0 135.743-59.457 139.278-133.891H88.539c1.25 26.426 9.734 51.688 24.734 73.445 2.137 3.102 1.36 7.356-1.746 9.493a6.822 6.822 0 0 1-9.496-1.747c-17.863-25.91-27.304-56.351-27.304-88.02a6.828 6.828 0 0 1 6.828-6.827H374.09a6.83 6.83 0 0 1 6.828 6.828c-.004 85.121-68.684 154.371-153.102 154.371zm0 0" opacity="1" data-original="#4c241d" class=""></path><path fill="#272627" d="M135.992 381.188c-1.515 0-3.039-.5-4.304-1.536a154.262 154.262 0 0 1-10.192-9.074 6.825 6.825 0 0 1-.133-9.652 6.825 6.825 0 0 1 9.653-.133 142.995 142.995 0 0 0 9.289 8.277 6.823 6.823 0 0 1-4.313 12.118zm0 0" opacity="1" data-original="#4c241d" class=""></path><path fill="#ffffff" d="M166.633 212.508c6.222-28.367 31.347-48.578 60.387-48.578 29.042 0 54.167 20.21 60.39 48.578l2.82 12.86h25.536l-12.563-92.134c-22.035-13.418-47.77-21.28-75.383-21.28-26.394 0-51.09 7.151-72.468 19.491l-17.079 93.922h25.54zm0 0" opacity="1" data-original="#ffce56" class=""></path><path fill="#272627" d="M315.77 232.195h-25.536a6.83 6.83 0 0 1-6.668-5.363l-2.82-12.86c-5.496-25.042-28.09-43.218-53.723-43.218-25.636 0-48.226 18.176-53.726 43.219l-2.817 12.859a6.83 6.83 0 0 1-6.668 5.363h-25.535a6.823 6.823 0 0 1-5.242-2.453 6.838 6.838 0 0 1-1.476-5.594l17.078-93.921a6.837 6.837 0 0 1 3.304-4.696c23.133-13.344 49.375-20.402 75.883-20.402 27.707 0 55 7.7 78.934 22.273a6.814 6.814 0 0 1 3.215 4.907l12.562 92.136a6.837 6.837 0 0 1-1.62 5.414 6.842 6.842 0 0 1-5.145 2.336zm-20.047-13.652h12.226l-11.062-81.121c-21.114-12.203-44.926-18.64-69.067-18.64-23.078 0-45.941 5.882-66.324 17.038l-15.039 82.723h11.863l1.645-7.5c6.86-31.254 35.058-53.941 67.058-53.941s60.2 22.687 67.055 53.941zm0 0" opacity="1" data-original="#4c241d" class=""></path><path fill="#ffffff" d="M274.543 260.781c0 25.805-20.918 46.723-46.723 46.723-25.804 0-46.722-20.918-46.722-46.723s20.918-46.722 46.722-46.722c25.805 0 46.723 20.918 46.723 46.722zm0 0" opacity="1" data-original="#edebdc" class=""></path><path fill="#272627" d="M227.816 314.332c-29.527 0-53.546-24.023-53.546-53.55 0-29.532 24.02-53.552 53.546-53.552 29.532 0 53.555 24.02 53.555 53.551 0 29.528-24.023 53.551-53.555 53.551zm0-93.45c-22 0-39.894 17.9-39.894 39.903 0 22 17.894 39.895 39.894 39.895 22.004 0 39.903-17.895 39.903-39.895 0-22.004-17.899-39.902-39.903-39.902zm0 0" opacity="1" data-original="#4c241d" class=""></path><path fill="#ffffff" d="M248.16 260.781c0 11.235-9.105 20.34-20.34 20.34-11.234 0-20.34-9.105-20.34-20.34s9.106-20.34 20.34-20.34c11.235 0 20.34 9.106 20.34 20.34zm0 0" opacity="1" data-original="#edebdc" class=""></path><g fill="#4c241d"><path d="M227.816 287.95c-14.976 0-27.164-12.188-27.164-27.169s12.188-27.164 27.164-27.164c14.98 0 27.168 12.184 27.168 27.164s-12.183 27.168-27.168 27.168zm0-40.68c-7.449 0-13.511 6.062-13.511 13.511s6.062 13.516 13.511 13.516c7.45 0 13.516-6.067 13.516-13.516s-6.062-13.511-13.516-13.511zM363.555 54.703a6.827 6.827 0 0 1-6.825-6.828v-20.48a6.827 6.827 0 0 1 13.652 0v20.48a6.83 6.83 0 0 1-6.827 6.828zM363.555 102.488a6.824 6.824 0 0 1-6.825-6.828V75.184a6.824 6.824 0 0 1 6.825-6.829 6.828 6.828 0 0 1 6.828 6.829V95.66a6.828 6.828 0 0 1-6.828 6.828zM349.902 68.355h-20.48a6.827 6.827 0 0 1 0-13.652h20.48a6.827 6.827 0 1 1 0 13.652zM397.688 68.355H377.21a6.828 6.828 0 0 1-6.828-6.828 6.824 6.824 0 0 1 6.828-6.824h20.476a6.824 6.824 0 0 1 6.829 6.824 6.828 6.828 0 0 1-6.829 6.828zM21.04 209.48c-3.419 0-6.806-.843-9.907-2.5-4.957-2.656-8.59-7.082-10.219-12.464-1.629-5.38-1.07-11.078 1.586-16.036a20.902 20.902 0 0 1 12.46-10.218c11.114-3.375 22.892 2.93 26.259 14.043 3.367 11.11-2.934 22.89-14.043 26.261a21.24 21.24 0 0 1-6.137.914zm.023-28.476c-.711 0-1.43.105-2.145.324a7.347 7.347 0 0 0-4.379 3.59 7.35 7.35 0 0 0-.555 5.64 7.325 7.325 0 0 0 3.59 4.38 7.372 7.372 0 0 0 5.64.558c3.907-1.184 6.122-5.328 4.938-9.234-.968-3.192-3.914-5.258-7.09-5.258zM34.555 42.203c-11.61 0-21.055-9.445-21.055-21.058C13.5 9.535 22.945.09 34.555.09s21.058 9.445 21.058 21.055c0 11.613-9.449 21.058-21.058 21.058zm0-28.46c-4.082 0-7.403 3.32-7.403 7.402 0 4.085 3.32 7.406 7.403 7.406 4.086 0 7.402-3.32 7.402-7.406a7.408 7.408 0 0 0-7.402-7.403zM92.242 93.824a6.828 6.828 0 0 1-4.828-11.652l20.129-20.125a6.82 6.82 0 0 1 9.652 0 6.828 6.828 0 0 1 0 9.652L97.07 91.824a6.802 6.802 0 0 1-4.828 2zm0 0" fill="#272627" opacity="1" data-original="#4c241d" class=""></path><path d="M112.367 93.824a6.787 6.787 0 0 1-4.824-2L87.414 71.7a6.828 6.828 0 0 1 9.656-9.652l20.125 20.125a6.828 6.828 0 0 1-4.828 11.652zM224.031 33.172c0 6.285-5.097 11.383-11.386 11.383-6.286 0-11.383-5.098-11.383-11.383 0-6.29 5.097-11.387 11.383-11.387 6.289 0 11.386 5.098 11.386 11.387zM415.176 176.531c0 6.29-5.094 11.383-11.383 11.383-6.29 0-11.387-5.094-11.387-11.383s5.098-11.386 11.387-11.386c6.289 0 11.383 5.097 11.383 11.386zm0 0" fill="#272627" opacity="1" data-original="#4c241d" class=""></path></g></g></svg>