<svg xmlns="http://www.w3.org/2000/svg" version="1.1" xmlns:xlink="http://www.w3.org/1999/xlink" width="512" height="512" x="0" y="0" viewBox="0 0 64 64" style="enable-background:new 0 0 512 512" xml:space="preserve" class=""><g><path d="M63.8 35.393A1 1 0 0 0 63 35h-1.219l-1.811-7.242A1 1 0 0 0 59 27h-1.59l3.149-5.514a3 3 0 1 0-5.2-2.974L50.5 27h-3.073l3.129-5.48a3 3 0 1 0-5.2-2.972L44 20.908V18a1 1 0 0 0-.4-.8L40 14.5V13h1a1 1 0 0 0 1-1V8a1 1 0 0 0-1-1h-2V2a1 1 0 1 0-2 0v5h-2V4a1 1 0 1 0-2 0v3a1 1 0 0 0-1 1v8.464l-4 2.667V15a1 1 0 1 0-2 0v7.72a7.263 7.263 0 0 0-2-1.614V18a1 1 0 0 0-2 0v2.262A7.92 7.92 0 0 0 13.1 24H3a2.922 2.922 0 0 0-2.108.874A2.942 2.942 0 0 0 0 27a3 3 0 0 0 3 3h9v2H1a1 1 0 0 0-.868 1.5l7.733 13.53A4.3 4.3 0 0 0 11.83 53H60a1 1 0 0 0 1-1v-4.866l2.965-10.871a1 1 0 0 0-.165-.87ZM58 19a1 1 0 1 1-1 1 1 1 0 0 1 1-1Zm-6.873 10.928 4.561-7.973a3.015 3.015 0 0 0 .782.657 2.959 2.959 0 0 0 .959.321l-4.556 7.981a1.012 1.012 0 0 1-1.368.378 1.034 1.034 0 0 1-.378-1.364ZM48 19a1 1 0 1 1-1 1 1 1 0 0 1 1-1Zm-2.312 2.984a2.764 2.764 0 0 0 1.739.982l-4.554 7.977a1 1 0 0 1-1.368.378 1.031 1.031 0 0 1-.378-1.362ZM34 9h6v2h-6Zm-6 19v-6.464l5.555-3.7A1 1 0 0 0 34 17v-4h4v2a1 1 0 0 0 .4.8l3.6 2.7V20h-6a1 1 0 0 0 0 2h6v2.4L40.515 27H37a1 1 0 0 0-.91.585l-4.341 9.551L28 32.638ZM4 28H3a1 1 0 0 1-1-1 .978.978 0 0 1 .306-.713A.961.961 0 0 1 3 26h1Zm3.694-.288A.961.961 0 0 1 7 28H6v-2h1a1 1 0 0 1 1 1 .977.977 0 0 1-.306.713ZM9.818 28A3 3 0 0 0 10 27a2.962 2.962 0 0 0-.184-1H20a1 1 0 0 1 1 1 .977.977 0 0 1-.306.712A.961.961 0 0 1 20 28Zm49.418 18H9.58L2.723 34h23.809l4.7 5.64A1 1 0 0 0 32 40h12a1 1 0 0 0 .832-.446L46.535 37h15.156Z" fill="#272627" opacity="1" data-original="#000000" class=""></path><path d="M31 26h3a1 1 0 0 0 0-2h-3a1 1 0 0 0 0 2ZM33 29a1 1 0 0 0-1-1h-1a1 1 0 0 0 0 2h1a1 1 0 0 0 1-1ZM13.707 37.292A1 1 0 0 0 13 37h-3a1 1 0 0 0 0 2h2.586l.707.707a1.063 1.063 0 0 0 1.414 0 1 1 0 0 0 0-1.415Z" fill="#272627" opacity="1" data-original="#000000" class=""></path></g></svg>