<svg xmlns="http://www.w3.org/2000/svg" version="1.1" xmlns:xlink="http://www.w3.org/1999/xlink" width="512" height="512" x="0" y="0" viewBox="0 0 64 64" style="enable-background:new 0 0 512 512" xml:space="preserve"><g><path d="M58 2H6a3.999 3.999 0 0 0-4 4v52a3.999 3.999 0 0 0 4 4h52a3.999 3.999 0 0 0 4-4V6a3.999 3.999 0 0 0-4-4ZM47.29 9.71a1.004 1.004 0 0 1 1.42-1.42L51 10.58l2.29-2.29a1.004 1.004 0 0 1 1.42 1.42L52.42 12l2.29 2.29a1.004 1.004 0 1 1-1.42 1.42L51 13.42l-2.29 2.29a1.004 1.004 0 0 1-1.42-1.42L49.58 12Zm-39 0a1.004 1.004 0 0 1 1.42-1.42L12 10.58l2.29-2.29a1.004 1.004 0 0 1 1.42 1.42L13.42 12l2.29 2.29a1.004 1.004 0 1 1-1.42 1.42L12 13.42l-2.29 2.29a1.004 1.004 0 0 1-1.42-1.42L10.58 12ZM12 56c-6.609-.206-6.607-9.795 0-10 6.609.206 6.607 9.795 0 10Zm9-15H4V23h17Zm20 19H23V43h18ZM29.88 29.88a1.017 1.017 0 0 1-1.42 0l-1.41-1.42a.997.997 0 0 1 1.41-1.41l1.42 1.41a1.008 1.008 0 0 1 0 1.42Zm0 5.66-1.42 1.41a.997.997 0 0 1-1.41-1.41l1.41-1.42a1.004 1.004 0 0 1 1.42 1.42ZM28 31a1 1 0 0 1 0 2h-2a1 1 0 0 1 0-2Zm4 4a1.003 1.003 0 0 1 1 1v2a1 1 0 0 1-2 0v-2a1.003 1.003 0 0 1 1-1Zm-1-7v-2a1 1 0 0 1 2 0v2a1 1 0 0 1-2 0Zm5.95.46-1.41 1.42a1.004 1.004 0 0 1-1.42-1.42l1.42-1.41a.997.997 0 0 1 1.41 1.41ZM38 31a1 1 0 0 1 0 2h-2a1 1 0 0 1 0-2Zm-3.88 3.12a1.008 1.008 0 0 1 1.42 0l1.41 1.42a.997.997 0 1 1-1.41 1.41l-1.42-1.41a1.008 1.008 0 0 1 0-1.42ZM41 21H23V4h18Zm11 35c-6.609-.206-6.607-9.795 0-10 6.609.206 6.607 9.795 0 10Zm8-15H43V23h17Z" fill="#272627" opacity="1" data-original="#000000"></path><path d="M47.293 35.707a1 1 0 0 0 1.414 0L51 33.414l2.293 2.293a1 1 0 0 0 1.414-1.414L52.414 32l2.293-2.293a1 1 0 1 0-1.414-1.414L51 30.586l-2.293-2.293a1 1 0 0 0-1.414 1.414L49.586 32l-2.293 2.293a1 1 0 0 0 0 1.414ZM28.293 55.707a1 1 0 0 0 1.414 0L32 53.414l2.293 2.293a1 1 0 0 0 1.414-1.414L33.414 52l2.293-2.293a1 1 0 0 0-1.414-1.414L32 50.586l-2.293-2.293a1 1 0 0 0-1.414 1.414L30.586 52l-2.293 2.293a1 1 0 0 0 0 1.414ZM32 17c6.609-.206 6.607-9.795 0-10-6.609.206-6.607 9.795 0 10Zm0-8a3 3 0 0 1 0 6 3 3 0 0 1 0-6ZM12 37c6.609-.206 6.607-9.795 0-10-6.609.206-6.607 9.795 0 10Zm0-8a3 3 0 0 1 0 6 3 3 0 0 1 0-6ZM12 48a3 3 0 0 0 0 6 3 3 0 0 0 0-6ZM52 48a3 3 0 0 0 0 6 3 3 0 0 0 0-6Z" fill="#272627" opacity="1" data-original="#000000"></path></g></svg>